<svg version="1.2" xmlns="http://www.w3.org/2000/svg" viewBox="0 0 100 100" width="100" height="100">
	<style>
		.s0 { fill: #2fac66 } 
		.s1 { fill: #ffffff } 
		.s2 { fill: #373736 } 
	</style>
	<g id="Pasta 1">
		<path class="s0" d="m100.06 49.61q-1.96 0.05-3.99 0.04 0 5 0 10.01c-0.42 0-0.81 0-1.22 0q0-4.98 0-9.99-2.11 0-4.22 0c0-0.37 0-0.7 0-1.08q4.67 0 9.39 0 0.05 0.48 0.04 1.02z"/>
		<path class="s1" d="m-27.94 40.02c-0.52 0.14-1.1 0.22-1.63 0.42-2.31 0.91-3.79 2.54-4.29 5q-0.05 0.33-0.13 0.69-0.04-3.03-0.03-6.11 3.01 0 6.08 0z"/>
		<path class="s1" d="m-34.02 60.86c0.14 0.52 0.21 1.1 0.42 1.63 0.89 2.32 2.53 3.79 5 4.28q0.33 0.06 0.68 0.14-3.02 0.04-6.1 0.03 0-3.01 0-6.08z"/>
		<path class="s2" d="m0.32 57.8c0-2.92 0-5.79 0-8.7q1.69 0 3.41 0 0 0.48 0 1.05c1.04-0.91 2.2-1.28 3.52-1.24 1.33 0.04 2.44 0.46 3.19 1.64 0.81-0.9 1.79-1.39 2.95-1.56 0.95-0.15 1.85-0.07 2.73 0.33 1.05 0.47 1.61 1.35 1.87 2.41 0.18 0.72 0.24 1.48 0.26 2.22 0.03 1.76 0.01 3.53 0.01 5.3q0 0.19 0 0.41c-1.17 0-2.31 0-3.51 0q0-0.2 0-0.41c0-1.78 0.03-3.56-0.01-5.34-0.02-0.93-0.34-1.43-1.06-1.69-0.92-0.33-2.07 0.04-2.63 0.94-0.06 0.09-0.05 0.23-0.05 0.35q0 3.05 0 6.14c-1.13 0-2.25 0-3.43 0q0-0.2 0-0.42 0.01-2.6 0-5.21 0.01-0.76-0.45-1.37c-0.61-0.77-2.1-0.67-2.82-0.02-0.39 0.35-0.58 0.74-0.57 1.29 0.03 1.9 0.01 3.81 0.01 5.73-1.13 0-2.25 0-3.42 0q0-0.88 0-1.85z"/>
		<path class="s2" d="m20.57 50.24c1.35-1.18 2.93-1.59 4.63-1.39 2.33 0.28 4.06 1.48 4.74 3.81 0.53 1.8 0.36 3.58-0.8 5.13-0.82 1.09-1.94 1.81-3.3 2.04-1.44 0.23-2.87 0.18-4.2-0.55q-2.22-1.21-2.71-3.64c-0.27-1.33-0.16-2.67 0.49-3.89 0.29-0.54 0.74-1 1.15-1.51zm1.6 4.03c0.09 0.45 0.07 0.95 0.27 1.34 0.58 1.15 1.89 1.55 3.15 0.96 0.95-0.45 1.53-1.63 1.18-2.87-0.29-1-1.27-1.74-2.38-1.71-1.1 0.03-2.2 1-2.22 2.28z"/>
		<path class="s2" d="m32.04 59.68c-0.39 0-0.74 0-1.12 0q0-5.29 0-10.58 1.67 0 3.4 0c0 0.36 0 0.72 0 1.15 0.67-0.63 1.37-1.06 2.21-1.21 1.5-0.29 2.89-0.13 4.03 1.01 0.61 0.62 0.98 1.41 1 2.24 0.07 2.44 0.02 4.9 0.02 7.37q-1.6 0-3.34 0 0-0.7 0-1.38c0-1.4 0.02-2.8-0.01-4.2-0.01-0.63-0.13-1.26-0.71-1.65-1.02-0.7-2.39-0.18-2.94 0.65-0.15 0.22-0.24 0.53-0.24 0.81-0.02 1.91-0.01 3.82-0.01 5.79q-1.13 0-2.29 0z"/>
		<path class="s2" d="m48.68 56.09c0-1.45 0-2.86 0-4.31q-0.89 0-1.77 0 0-1.35 0-2.69c0.6 0 1.19 0 1.85 0q0.2-1.3 0.41-2.6 1.44 0 2.92 0 0 1.26 0 2.58 1.85 0 3.66 0 0 1.35 0 2.68c-1.2 0-2.39 0-3.64 0q0 0.28 0 0.53-0.02 1.51 0 3.02 0.03 0.51 0.19 1.01c0.15 0.5 0.86 0.69 1.23 0.57 0.55-0.19 1.08-0.45 1.62-0.68q0.07-0.03 0.17-0.03 0.51 1.29 1.05 2.63-1.01 0.67-2.18 0.86-1.19 0.19-2.4 0.17c-1.5-0.01-2.53-0.93-2.93-2.28-0.14-0.45-0.13-0.95-0.18-1.46z"/>
		<path class="s2" d="m42.89 56.01c0-2.32 0-4.6 0-6.91q1.74 0 3.48 0 0 5.26 0 10.55-1.7 0-3.48 0 0-1.78 0-3.64z"/>
		<path class="s0" d="m70.62 54.13c0-1.86 0-3.67 0-5.52q0.56 0 1.13 0 0 2.45 0 4.92c2.56 0 5.09 0 7.66 0q0-2.43 0-4.92 0.63 0 1.22 0 0 5.5 0 11.04-0.56 0-1.19 0 0-2.47 0-5c-2.57 0-5.11 0-7.67 0q0 2.48 0 5c-0.38 0-0.74 0-1.15 0q0-2.72 0-5.52z"/>
		<path class="s0" d="m88.24 50.29q0.79 1.93 1.57 3.82 1.12 2.74 2.27 5.57-0.57 0.01-1.1-0.01c-0.08-0.01-0.18-0.11-0.21-0.19q-0.45-1.13-0.92-2.25c-0.05-0.11-0.22-0.23-0.33-0.23q-2.72-0.02-5.43 0c-0.1 0-0.26 0.08-0.3 0.17q-0.54 1.23-1.06 2.49c-0.38 0-0.77 0-1.24 0q2.38-5.56 4.75-11.07 0.25 0 0.49 0c0.86 0 0.86 0 1.17 0.78q0.17 0.43 0.34 0.92zm-0.34 2.02q-0.5-1.18-1.01-2.41-1.35 3.09-2.68 6.16c1.76 0 3.46 0 5.21 0-0.52-1.26-1.01-2.47-1.52-3.75z"/>
		<path class="s0" d="m67.51 48.99c0.67 0.34 1.28 0.71 1.74 1.29q-0.31 0.42-0.61 0.84c-1.19-1.2-2.64-1.67-4.27-1.54-1.08 0.08-2.06 0.53-2.78 1.33-1.77 1.95-1.59 4.8 0.04 6.5 1.68 1.75 4.95 1.84 7.02-0.27q0.3 0.45 0.61 0.92c-0.79 0.76-1.66 1.33-2.73 1.59-1.55 0.37-3.07 0.28-4.47-0.47-1.44-0.78-2.39-1.99-2.77-3.6-0.43-1.82-0.1-3.52 1.01-5 0.87-1.17 2.11-1.83 3.55-2.07q1.68-0.28 3.27 0.32 0.18 0.07 0.39 0.16z"/>
		<path class="s2" d="m43.02 45.23c0.36-0.19 0.68-0.46 1.03-0.51 0.76-0.1 1.57-0.2 2.17 0.47 0.49 0.55 0.42 1.2 0.22 1.81-0.17 0.52-0.67 0.79-1.21 0.84q-0.66 0.05-1.31-0.06c-1.16-0.18-1.26-1.09-1.18-1.88 0.02-0.23 0.17-0.43 0.28-0.67z"/>
	</g>
</svg>